<?xml version="1.0" standalone="no"?>
<!DOCTYPE svg PUBLIC "-//W3C//DTD SVG 20010904//EN"
 "http://www.w3.org/TR/2001/REC-SVG-20010904/DTD/svg10.dtd">
<svg version="1.0" xmlns="http://www.w3.org/2000/svg"
 width="512.000000pt" height="512.000000pt" viewBox="0 0 512.000000 512.000000"
 preserveAspectRatio="xMidYMid meet">

<g transform="translate(0.000000,512.000000) scale(0.100000,-0.100000)"
fill="#000000" stroke="none">
<path d="M3760 4785 c-84 -17 -167 -54 -244 -109 -33 -25 -683 -667 -1443
-1428 -1482 -1484 -1446 -1446 -1507 -1609 -27 -72 -246 -1058 -246 -1107 0
-109 104 -212 212 -212 23 0 328 64 841 176 221 48 322 84 423 149 73 47 2814
2780 2880 2871 143 198 162 441 53 664 -39 79 -56 99 -253 296 -198 198 -216
214 -296 253 -138 67 -274 85 -420 56z m330 -1570 l-160 -160 -437 437 -438
438 160 160 160 160 437 -437 438 -438 -160 -160z m-2888 -2012 c225 -225 408
-411 408 -415 0 -15 -121 -49 -373 -104 l-268 -57 -160 159 c-88 87 -165 167
-170 176 -18 33 124 648 150 648 3 0 189 -183 413 -407z"/>
</g>
</svg>
